<?xml version="1.0" encoding="UTF-8"?><svg id="Layer_1" xmlns="http://www.w3.org/2000/svg" viewBox="0 0 193.68 188.64"><defs><style>.cls-1{fill:#f2f2f2;}.cls-2{fill:#f2f2f2;}.cls-3{fill:#e00;}</style></defs><path class="cls-1" d="M79.62,138.16c-12.48,1.3-22.92,4.87-35.14-.2-26.83-11.13-29.19-48.11-4.79-63.23l55.48-25.92c.78-.76.21-9.54.36-11.47,1.89-23.21,33.11-30.92,45.8-11.4,7.05,10.85,3.13,25.02,4.15,37.29,4.83,6.68,8.3,14.29,9.24,22.58.42,3.72.08,7.82.36,11.48,1.21,15.98,3.12,32.31,6.85,47.9.35,1.46,2.69,10.94,3.34,11.09,19.62-15.12,46.88-17.19,68.5-4.89,3.07-1.29,6.02-2.89,9.18-3.99,24.54-8.57,50.85-1.32,67.8,18.08,13.86-1.52,27.16.76,39.2,7.76,24.3,14.13,35.72,42.85,28.29,70.09,21.59,18.48,33.62,47.94,20.67,75.22,6.86,15.36,7.16,33.16,0,48.47,17.49,40.18-10.53,72.91-43.78,91.6-67.73,38.09-183.87,37.74-249.95-3.98-30.16-19.04-53.55-50.6-37.11-87.35-6.96-15.4-7.2-33.1,0-48.47-12.77-27.13-1.42-55.84,19.64-74.73-1.11-3.27-2.4-6.52-3.37-9.84-9.07-30.98-7.62-64.29-4.71-96.11ZM124.32,266.24c-.13,4.24-.43,8.04.11,12.29,4.16,32.98,40.95,51.14,69.7,34.32,12.5,19.19,36.45,26.87,57.77,17.78,8.77-3.74,15.52-10.06,21.02-17.74,33.25,19.51,74.59-8.36,69.54-46.33,20.11-12.02,28.81-36.73,19.39-58.59-9.53-22.11-34.37-33.29-57.41-25.81-.52-.13-3.9-5.43-4.71-6.41-14.23-17.4-39.1-22.19-58.82-11.12-2.53,1.42-4.78,3.31-7.21,4.88-18.41-15.2-42.98-15.06-61.24.3-2.25,1.89-3.7,4.54-6.67,5.54-9.97,3.38-12.89-8.01-15.17-15.15-6.31-19.81-8.78-41.47-10.35-62.17-.27-3.54.09-7.17-.38-10.72-.97-7.38-4.43-13.04-9.24-18.51-.64-9.57.82-20.16,0-29.6-1.03-11.92-17.7-12.96-20.2-1.3l-.16,23.33c-4.42-.23-8.93,1-12.95,2.78-16.41,7.25-32.4,15.79-48.96,22.82-19.34,11.45-10.99,39.94,11.39,39.14l37.55-5.54c-1.2,7.68-2.51,15.39-3.32,23.12-3.54,33.45-5.06,96.29,24.45,119.09,1.8,1.39,3.69,2.8,5.82,3.61ZM109.12,274.03c-2.56-1.81-5.02-4.05-7.13-6.37-2.36-2.6-4.35-6.32-6.52-8.64-.25-.27-.32-.73-.84-.6-10.77,10.53-18.79,25.34-16.85,40.86,3.89,31.17,41.18,51.8,67.78,61.34,34.58,12.4,71.58,15.49,108.13,13.58,5.17-.27,13.05-2.94,16.41,2.47,1.72,2.77.8,3.96.79,6.58-.12,16.39.08,32.79.06,49.18,1.38,8.64,12.55,9.33,14.67.69,1.24-16.08-1.36-33.99.09-49.85,1.62-17.61,26.2-22.22,34.22-6.49,4.07,7.99,1.19,22.79,2.01,32.02.93,10.38,15.95,10.68,17.03-.02,1.11-16.72-1.46-35.31-.01-51.81.08-.95.24-1.8.68-2.65,1.5-2.9,10.83-7.16,14.1-9.21,28.12-17.58,48.95-47.01,25.7-78.55-.87-1.18-6.95-8.74-7.72-8.55-3.92,6.08-8.59,11.59-14.2,16.15-.24,40.54-41.71,69.77-80.17,56.85-15.96,15.7-38.71,21.98-60.48,15.97-10.32-2.85-19.54-8.57-27.18-15.95-25.36,8.08-53.33-.79-68.79-22.38-7.41-10.35-11.09-21.9-11.79-34.65ZM256.09,422.31v-33.67c-25.53,2.07-51.82.81-77.02-3.82-30.18-5.54-63.1-16.99-87.05-36.52-4.75-3.88-9.66-8.35-13.15-13.31l-.73.18c-5.32,34.04,28.1,57.16,55.25,69.07,34.68,15.21,76.68,20.6,114.4,18.82,2.68-.13,5.63-.48,8.31-.76ZM353.77,393.45c3.36-1.85,6.57-4.14,9.58-6.51,15.65-12.33,29.97-30.7,25.01-51.94-7.4,8.77-16.29,16-25.89,22.2-2.86,1.85-5.96,3.33-8.7,5.36v30.89ZM300.49,415.28l6.87-1.83c-.45-9.55-.03-19.34-.28-28.99-.79-2.09-2.77-3.17-4.87-2.06-.44.23-1.71,1.63-1.71,1.99v30.89ZM78.87,383.46l-.73.18c-4.49,25.96,15.4,46.22,35.55,58.79,63.5,39.62,182.9,39.65,244.79-3.4,17.7-12.32,35.25-32.3,29.89-55.58-9.39,11.58-21.86,20.05-34.62,27.53-2.37,18.07-23.43,26.89-37.9,15.53l-15.34,3.94c.85,27.11-36.68,32.83-43.69,6.65-34.38,2.66-70.06-.2-103.21-9.81-29.35-8.51-53.22-20.79-74.38-42.92-.27-.29-.32-.87-.37-.91Z"/><circle class="cls-1" cx="100.71" cy="87.4" r="10.24"/><path id="path8" class="cls-3" d="M98.52,48.37c24.11,17.08,52.67,14.92,55.86,10.34.24-.3.43-.65.57-1.01.69-2.12,4.87-16.79,4.87-16.79,1.47-5.21.99-8.61-1.98-10.72-3.11-2.22-7.51-1.17-10.82-3.53-3.41-2.43-1.61-6.73-4.53-8.81-3.11-2.22-16.39-5.63-22.95-6.57-8.36-1.33-10.26-.23-13.6,2.68l-15.05,13.41c-.49.48-.94,1.01-1.34,1.58-5.24,7.37,2.79,15.02,8.97,19.41M86.46,31.31c-12.81-2.71-23.31.54-27.78,6.81-5.7,8.01-7.27,22.15,15.12,38.08,29.16,20.75,79.69,27.81,90.77,12.24,6.75-9.49-2.97-18.64-10.99-24.95-.32,1.49-.94,2.9-1.83,4.14-6.37,8.95-36.22,8.11-59.35-8.35-10.23-7.28-15.25-16.66-10.33-23.58.35-.49.67-.94,4.39-4.39"/><path id="path10" class="cls-2" d="M90.92,27.33c-.49.48-.94,1.01-1.34,1.58-5.24,7.37,2.79,15.02,8.97,19.41,24.02,17.09,52.59,14.93,55.82,10.39.24-.3.43-.65.57-1.01l-1.37,5.8c-.32,1.49-.94,2.9-1.83,4.14-6.37,8.95-36.22,8.11-59.35-8.35-10.23-7.28-15.25-16.66-10.33-23.58.35-.49.67-.94,4.39-4.39l4.46-3.97Z"/></svg>