<?xml version="1.0" encoding="UTF-8"?>
<svg id="Layer_2" data-name="Layer 2" xmlns="http://www.w3.org/2000/svg" viewBox="0 0 202.85 253.02">
  <defs>
    <style>
      .cls-1 {
        fill: #f2f2f2;
      }

      .cls-2 {
        fill: #f2f2f2;
      }

      .cls-3 {
        fill: #e00;
      }
    </style>
  </defs>
  <g>
    <path class="cls-1" d="M30.22,67.76c-6.64.69-12.19,2.59-18.68-.1-14.27-5.92-15.52-25.58-2.55-33.62l29.5-13.78c.41-.4.11-5.07.19-6.1,1.01-12.34,17.61-16.44,24.35-6.06,3.75,5.77,1.66,13.3,2.21,19.83,2.57,3.55,4.41,7.6,4.91,12.01.22,1.98.04,4.16.19,6.1.65,8.5,1.66,17.18,3.64,25.47.19.78,1.43,5.82,1.78,5.9,10.43-8.04,24.93-9.14,36.42-2.6,1.63-.69,3.2-1.54,4.88-2.12,13.05-4.56,27.04-.7,36.05,9.61,7.37-.81,14.44.41,20.84,4.13,12.92,7.51,18.99,22.79,15.04,37.27,11.48,9.83,17.88,25.49,10.99,39.99,3.65,8.17,3.81,17.63,0,25.77,9.3,21.37-5.6,38.77-23.28,48.71-36.01,20.25-97.76,20.07-132.9-2.12-16.04-10.12-28.47-26.9-19.73-46.44-3.7-8.19-3.83-17.6,0-25.77-6.79-14.43-.76-29.69,10.44-39.73-.59-1.74-1.28-3.47-1.79-5.23-4.82-16.47-4.05-34.18-2.5-51.1ZM53.99,135.85c-.07,2.25-.23,4.27.06,6.53,2.21,17.53,21.77,27.19,37.06,18.25,6.64,10.2,19.38,14.29,30.72,9.45,4.66-1.99,8.25-5.35,11.18-9.43,17.68,10.37,39.66-4.45,36.98-24.63,10.69-6.39,15.32-19.53,10.31-31.15s-18.28-17.7-30.52-13.73c-.28-.07-2.07-2.88-2.5-3.41-7.56-9.25-20.79-11.8-31.28-5.91-1.35.76-2.54,1.76-3.83,2.59-9.79-8.08-22.85-8.01-32.56.16-1.2,1.01-1.97,2.41-3.54,2.95-5.3,1.8-6.85-4.26-8.06-8.06-3.35-10.53-4.67-22.05-5.5-33.05-.14-1.88.05-3.81-.2-5.7-.52-3.92-2.36-6.93-4.91-9.84-.34-5.09.44-10.72,0-15.74-.55-6.34-9.41-6.89-10.74-.69l-.09,12.4c-2.35-.12-4.75.53-6.88,1.48-8.73,3.86-17.23,8.39-26.03,12.13-10.28,6.09-5.84,21.24,6.06,20.81l19.97-2.95c-.64,4.08-1.33,8.18-1.77,12.3-1.88,17.78-2.69,51.2,13,63.32.96.74,1.96,1.49,3.1,1.92ZM45.91,140c-1.36-.96-2.67-2.15-3.79-3.39-1.25-1.38-2.31-3.36-3.47-4.6-.13-.14-.17-.39-.45-.32-5.73,5.6-9.99,13.47-8.96,21.73,2.07,16.57,21.89,27.54,36.04,32.61,18.38,6.59,38.06,8.24,57.49,7.22,2.75-.14,6.94-1.56,8.72,1.31.91,1.47.43,2.11.42,3.5-.06,8.72.04,17.43.03,26.15.73,4.59,6.67,4.96,7.8.37.66-8.55-.73-18.07.05-26.51.86-9.37,13.93-11.82,18.2-3.45,2.16,4.25.63,12.12,1.07,17.03.5,5.52,8.48,5.68,9.05-.01.59-8.89-.78-18.78,0-27.55.04-.5.13-.96.36-1.41.8-1.54,5.76-3.81,7.5-4.9,14.95-9.35,26.03-25,13.67-41.76-.46-.63-3.7-4.65-4.1-4.55-2.08,3.23-4.56,6.16-7.55,8.59-.13,21.55-22.18,37.1-42.63,30.23-8.49,8.35-20.58,11.68-32.16,8.49-5.49-1.51-10.39-4.55-14.45-8.48-13.48,4.29-28.36-.42-36.57-11.9-3.94-5.5-5.89-11.64-6.27-18.42ZM124.05,218.84v-17.9c-13.58,1.1-27.55.43-40.95-2.03-16.05-2.95-33.55-9.03-46.29-19.42-2.53-2.06-5.14-4.44-6.99-7.08l-.39.1c-2.83,18.1,14.94,30.39,29.37,36.72,18.44,8.09,40.77,10.95,60.83,10.01,1.42-.07,2.99-.25,4.42-.4ZM175.99,203.49c1.79-.98,3.49-2.2,5.09-3.46,8.32-6.56,15.93-16.33,13.3-27.62-3.93,4.66-8.66,8.5-13.77,11.81-1.52.98-3.17,1.77-4.63,2.85v16.43ZM147.66,215.1l3.65-.97c-.24-5.08-.02-10.28-.15-15.41-.42-1.11-1.47-1.69-2.59-1.1-.23.12-.91.87-.91,1.06v16.43ZM29.82,198.18l-.39.1c-2.39,13.8,8.19,24.57,18.9,31.26,33.77,21.07,97.25,21.08,130.16-1.81,9.41-6.55,18.74-17.17,15.89-29.55-4.99,6.16-11.62,10.66-18.41,14.64-1.26,9.61-12.46,14.3-20.15,8.26l-8.15,2.1c.45,14.42-19.51,17.46-23.23,3.54-18.28,1.42-37.25-.1-54.88-5.22-15.6-4.53-28.29-11.06-39.55-22.82-.15-.15-.17-.46-.2-.49Z"/>
    <g>
      <path class="cls-1" d="M109.3,51.82c-1.79-1.15-3.2-1.62-5.38-1.35-1.5.18-4.26,1.71-2.59,3.33,1.33,1.3,7.1-.16,9.75,1.85,2.23,1.7,2.41,5.22.59,7.28-2.55,2.88-10.73,3.66-13.1.09l1.79-2.54c1.75,2.01,6.17,2.21,8.23.75,1.22-.86.9-2.5-.46-3.02-2.8-1.09-8.76.95-10.39-3.18-2.84-7.21,8.96-10.14,13.05-5.77l-1.49,2.56Z"/>
      <path class="cls-1" d="M173.23,65.2l9.74-2.94,3.83,2.25-11.01,3.25,2.94,11.99-4.08-2.61c-.3-1.23-2.05-9.48-2.71-9.78l-3.45,6.29-3.33-1.67,8.46-15.05,3.13,1.89-3.53,6.37Z"/>
      <path class="cls-1" d="M142.7,47.74c1.76,5.83,2.87,11.84,3.78,17.85l-3.85-.77-.51-3.72-7.23-1-1.42,3.5-3.71-.17c2.11-5.76,5.45-11,8.49-16.29l4.45.6ZM141.56,57.92l-1.47-7.47-3.64,6.69,5.11.79Z"/>
      <path class="cls-1" d="M166.74,58.31l-3.34.6c-.08-2.91-3.47-4.88-6.1-4.03-3.63,1.18-5.72,7.92-2.35,10.41,1.95,1.44,4.85,1.54,6.58-.28l2.27,2.46c-4.1,4.68-13.57,1.37-14.17-4.73-.43-4.27,1.59-9.34,5.85-10.87,4.63-1.66,10.91,1.14,11.26,6.44Z"/>
      <path class="cls-1" d="M130.35,46.12v3.15h-5.41l-.3.3v13.67h-2.85c-.1,0-.41.31-.69.2v-14.16h-5.7v-3.15h14.95Z"/>
      <g>
        <path class="cls-1" d="M139.55,23.74l3.59,10.77,6.88-8.95c.51-.22,3.9.27,4.05.48l-2.47,17.13-3.54-.79,1.97-11.8-5.59,7.29c-.46.38-3.11-.11-3.36-.41l-3.05-8.65-1.77,11.41-3.54-.2,2.76-17.12,4.08.84Z"/>
        <path class="cls-1" d="M170.05,31.4c.45,5.99.2,11.98-.16,17.97l-.3.49-3.35-1.56.19-3.97-6.3-2.34c-.8-.19-2.31,2.94-2.55,2.96l-3.62-1.29c3.72-4.82,7.65-9.49,11.99-13.78l4.1,1.51ZM166.94,40.32c.29-2.03-.22-4.69,0-6.79-.76.76-4.94,5.15-4.92,5.8l4.44,1.67c.28.14.46-.58.48-.69Z"/>
        <path class="cls-1" d="M129.96,39.82l-3.91-.21-.98-3.4-7.28.1-.82,3.5-3.72.41c1.22-5.96,3.56-11.63,5.73-17.28l4.6.17c2.49,5.42,4.76,10.97,6.39,16.72ZM123.86,33.14c-.08-1.15-.63-2.3-1.03-3.39-.12-.33-1.45-3.89-1.72-3.69l-2.36,7.08h5.11Z"/>
        <polygon class="cls-1" points="81.56 30.58 86.48 43.76 94.65 40.66 95.84 43.57 84.31 48 78.02 31.87 81.56 30.58"/>
        <polygon class="cls-1" points="99.06 25.27 101.63 39.24 110.16 37.64 110.87 40.41 98.48 42.78 95.52 25.97 99.06 25.27"/>
      </g>
    </g>
    <circle class="cls-1" cx="41.44" cy="40.77" r="5.44"/>
  </g>
  <path id="path8" class="cls-3" d="M40.27,20.02c12.82,9.08,28.01,7.93,29.7,5.5.13-.16.23-.34.3-.54.37-1.13,2.59-8.93,2.59-8.93.78-2.77.52-4.58-1.05-5.7-1.66-1.18-3.99-.62-5.75-1.88s-.86-3.58-2.41-4.68c-1.66-1.18-8.72-3-12.2-3.5-4.44-.71-5.46-.12-7.23,1.43l-8,7.13c-.26.26-.5.54-.71.84-2.79,3.92,1.48,7.98,4.77,10.32M33.86,10.94c-6.81-1.44-12.4.29-14.77,3.62-3.03,4.26-3.87,11.78,8.04,20.25,15.51,11.03,42.37,14.79,48.26,6.51,3.59-5.05-1.58-9.91-5.84-13.26-.17.79-.5,1.54-.97,2.2-3.38,4.76-19.26,4.31-31.56-4.44-5.44-3.87-8.11-8.86-5.49-12.54.19-.26.36-.5,2.34-2.34"/>
  <path id="path10" class="cls-2" d="M36.23,8.83c-.26.26-.5.54-.71.84-2.79,3.92,1.48,7.98,4.77,10.32,12.77,9.09,27.96,7.94,29.68,5.52.13-.16.23-.34.3-.54l-.73,3.08c-.17.79-.5,1.54-.97,2.2-3.38,4.76-19.26,4.31-31.56-4.44-5.44-3.87-8.11-8.86-5.49-12.54.19-.26.36-.5,2.34-2.34l2.37-2.11Z"/>
</svg>